<?xml version="1.0" standalone="no"?>
<!DOCTYPE svg PUBLIC "-//W3C//DTD SVG 20010904//EN"
 "http://www.w3.org/TR/2001/REC-SVG-20010904/DTD/svg10.dtd">
<svg version="1.0" xmlns="http://www.w3.org/2000/svg"
 width="5000.000000pt" height="4353.000000pt" viewBox="0 0 5000.000000 4353.000000"
 preserveAspectRatio="xMidYMid meet">
<metadata>
Created by potrace 1.16, written by Peter Selinger 2001-2019
</metadata>
<g transform="translate(0.000000,4353.000000) scale(0.100000,-0.100000)"
fill="#000000" stroke="none">
<path d="M35894 43161 c-5 -5 -115 -14 -244 -20 -441 -21 -957 -76 -1475 -157
-339 -53 -776 -139 -1062 -209 -329 -80 -412 -102 -618 -162 -66 -19 -145 -42
-175 -50 -68 -17 -630 -205 -720 -239 -36 -14 -87 -34 -115 -44 -500 -185
-1100 -459 -1575 -718 -175 -96 -212 -117 -395 -224 -1564 -918 -2955 -2232
-3973 -3754 -92 -137 -253 -391 -293 -460 -10 -16 -51 -87 -93 -158 -42 -70
-94 -162 -117 -203 l-41 -74 -62 103 c-34 57 -68 114 -76 128 -23 37 -240 361
-262 390 -11 14 -61 82 -111 151 -551 753 -1353 1570 -2212 2254 -481 383
-1004 749 -1490 1042 -129 78 -207 123 -385 226 -294 169 -808 430 -1095 556
-27 12 -70 32 -95 44 -25 11 -65 30 -90 40 -25 11 -54 24 -64 30 -59 29 -558
227 -756 300 -320 117 -724 247 -1025 328 -44 12 -116 32 -160 44 -218 61
-691 167 -980 219 -388 69 -583 101 -725 115 -52 6 -149 17 -215 25 -208 26
-444 47 -630 56 -99 5 -286 14 -415 21 -254 12 -948 7 -1175 -10 -71 -5 -190
-12 -263 -16 -73 -3 -167 -10 -210 -15 -42 -5 -135 -14 -207 -20 -129 -10
-191 -18 -540 -66 -372 -52 -458 -66 -795 -134 -52 -11 -144 -29 -205 -41
-173 -34 -537 -121 -760 -183 -1150 -320 -2237 -784 -3242 -1385 -204 -121
-487 -302 -642 -410 -69 -48 -157 -109 -196 -136 -66 -46 -409 -302 -485 -362
-491 -390 -743 -613 -1165 -1037 -320 -321 -524 -543 -776 -846 -147 -177
-335 -416 -379 -480 -13 -19 -32 -44 -42 -55 -10 -11 -39 -50 -65 -87 -27 -36
-84 -117 -129 -180 -44 -62 -123 -176 -174 -253 -51 -77 -101 -151 -111 -165
-10 -14 -26 -38 -35 -55 -9 -16 -40 -66 -69 -110 -28 -44 -82 -132 -120 -195
-37 -63 -78 -131 -90 -150 -26 -42 -147 -256 -200 -355 -21 -38 -48 -88 -60
-110 -13 -22 -77 -148 -143 -280 -243 -487 -450 -970 -635 -1490 -65 -181
-176 -515 -182 -548 -4 -16 -28 -97 -67 -223 -10 -33 -21 -71 -23 -84 -2 -13
-11 -44 -20 -69 -19 -57 -46 -159 -85 -321 -17 -69 -40 -161 -50 -205 -11 -44
-22 -93 -24 -108 -3 -15 -11 -51 -20 -80 -8 -29 -26 -113 -40 -187 -15 -74
-36 -178 -46 -230 -11 -52 -22 -111 -24 -130 -2 -19 -13 -84 -25 -145 -24
-127 -57 -335 -65 -415 -4 -30 -15 -118 -26 -195 -27 -199 -51 -411 -60 -545
-5 -63 -15 -198 -23 -300 -9 -102 -21 -255 -26 -340 -13 -179 -15 -1440 -3
-1440 4 0 6 -15 4 -33 -2 -18 8 -226 22 -462 34 -566 34 -569 52 -720 8 -71
15 -152 15 -180 0 -27 9 -126 19 -220 10 -93 22 -206 25 -250 6 -85 32 -286
67 -525 11 -80 21 -152 20 -160 0 -8 10 -87 23 -175 13 -88 26 -182 30 -210 6
-54 25 -161 56 -320 10 -55 21 -118 23 -140 3 -22 14 -89 26 -150 11 -60 34
-182 50 -270 17 -88 37 -189 44 -225 8 -36 24 -110 36 -165 12 -55 33 -147 46
-205 13 -58 35 -157 49 -220 14 -63 32 -141 41 -173 8 -32 17 -68 19 -80 4
-21 26 -105 65 -252 10 -38 30 -115 45 -170 14 -55 35 -131 46 -170 11 -38 22
-77 24 -85 54 -242 383 -1244 569 -1733 78 -204 159 -409 231 -582 37 -88 75
-180 85 -205 32 -79 275 -619 345 -765 61 -128 273 -556 305 -615 7 -14 18
-34 23 -45 67 -133 386 -713 490 -890 435 -742 959 -1530 1432 -2155 544 -718
1053 -1326 1693 -2020 222 -240 1111 -1138 1321 -1334 422 -394 845 -777 1031
-936 36 -30 123 -106 195 -169 129 -113 592 -502 718 -603 36 -29 168 -136
294 -238 208 -168 455 -363 701 -553 51 -40 130 -101 175 -136 106 -82 739
-556 925 -692 79 -57 187 -136 240 -174 226 -164 804 -572 1152 -812 615 -425
1745 -1176 2380 -1583 38 -25 215 -138 392 -252 608 -390 1384 -881 2196
-1389 119 -75 395 -248 612 -384 217 -137 490 -308 605 -380 116 -73 341 -214
500 -315 160 -101 335 -212 390 -246 144 -91 775 -493 1047 -669 218 -140 306
-197 663 -429 187 -122 1243 -825 1375 -916 58 -40 161 -111 230 -158 497
-340 1380 -968 1680 -1195 69 -53 108 -76 116 -71 7 5 113 92 236 194 672 557
1859 1477 2631 2040 49 36 155 113 235 173 766 562 1844 1327 3152 2235 234
163 445 310 470 327 25 17 268 186 540 375 272 189 515 358 540 375 25 17 142
99 260 181 429 299 706 493 885 620 43 31 141 99 355 249 30 21 210 149 400
283 2283 1621 4005 2951 5495 4246 413 359 1061 948 1375 1251 536 515 1198
1190 1596 1625 346 378 502 557 862 985 368 436 837 1040 1147 1475 49 69 105
148 125 175 155 210 582 856 779 1178 20 32 46 74 58 92 20 31 194 324 241
405 109 191 322 571 372 666 271 513 439 857 630 1285 67 151 128 288 136 304
23 50 102 241 166 400 95 238 99 248 115 290 8 22 32 85 53 140 51 132 110
290 126 340 7 22 29 85 49 140 20 55 41 114 45 130 5 17 26 82 48 145 22 63
61 183 86 265 26 83 54 170 62 195 9 25 20 61 24 80 4 19 13 48 19 64 7 16 20
59 30 95 74 267 135 486 151 541 10 36 21 82 24 104 4 21 8 41 11 45 10 17 94
366 146 606 10 50 29 132 40 184 12 52 23 106 25 120 1 13 12 63 23 110 29
129 93 476 131 721 11 74 30 185 40 245 25 140 103 715 115 855 3 36 12 117
20 180 8 63 19 174 25 245 13 172 20 244 25 280 2 17 7 82 10 145 3 63 10 169
15 235 9 121 21 330 40 700 13 252 12 1469 -1 1715 -5 102 -19 282 -30 400
-10 118 -19 240 -19 270 -1 30 -7 109 -15 175 -8 66 -19 163 -25 215 -22 208
-107 724 -161 975 -11 50 -29 135 -40 190 -12 55 -30 134 -41 175 -11 41 -23
93 -27 115 -11 54 -75 298 -108 410 -50 172 -136 450 -150 483 -7 17 -11 32
-8 32 2 0 -5 24 -16 53 -12 28 -25 66 -29 82 -5 17 -28 86 -53 155 -25 69 -55
152 -67 185 -12 33 -30 79 -41 102 -10 23 -19 47 -19 52 0 6 -9 30 -19 53 -11
24 -49 117 -86 208 -228 563 -558 1217 -902 1790 -135 224 -465 730 -552 846
-25 33 -66 90 -91 125 -128 181 -422 559 -591 760 -316 375 -479 551 -873 944
-307 307 -497 485 -726 680 -58 49 -107 92 -110 95 -8 11 -279 232 -377 307
-437 341 -734 552 -1144 815 -610 391 -1432 826 -1979 1048 -25 10 -83 35
-130 55 -47 20 -114 47 -150 61 -36 14 -96 38 -135 54 -382 153 -1078 375
-1490 475 -60 14 -144 35 -185 45 -139 35 -451 100 -645 134 -478 84 -908 137
-1264 157 -102 5 -202 14 -221 20 -43 11 -1143 12 -1156 0z m921 -1400 c16 -5
37 -9 45 -9 21 0 85 -9 155 -21 33 -5 102 -12 153 -15 51 -3 97 -8 102 -11 6
-3 27 -7 47 -9 21 -2 81 -12 133 -23 52 -12 122 -21 155 -22 33 0 92 -10 130
-20 61 -17 272 -47 345 -50 14 0 77 -14 141 -30 63 -17 123 -30 134 -30 35 1
229 -48 277 -70 26 -11 54 -21 63 -21 9 0 30 -8 48 -17 65 -35 187 -72 237
-74 8 0 38 -10 65 -21 28 -11 59 -24 70 -29 11 -4 54 -23 96 -43 42 -19 89
-38 105 -42 29 -7 100 -39 329 -145 22 -11 58 -23 80 -28 48 -11 205 -77 257
-108 20 -12 81 -43 135 -69 54 -25 108 -55 121 -65 13 -10 43 -21 68 -25 24
-3 47 -10 49 -15 3 -4 26 -18 50 -30 25 -12 45 -26 45 -31 0 -4 9 -8 20 -8 11
0 20 -4 20 -9 0 -5 16 -16 35 -25 19 -9 69 -40 111 -69 42 -29 85 -57 94 -62
10 -6 25 -17 34 -24 9 -7 16 -10 16 -6 0 5 8 2 18 -6 9 -8 42 -26 72 -39 30
-13 81 -44 113 -67 31 -24 62 -43 67 -43 6 0 10 -4 10 -9 0 -4 20 -21 45 -37
25 -15 45 -31 45 -35 0 -4 11 -10 25 -13 14 -4 25 -11 25 -16 0 -6 5 -10 11
-10 6 0 36 -20 67 -44 32 -25 69 -48 84 -51 16 -4 38 -18 50 -31 13 -13 29
-24 36 -24 6 0 12 -5 12 -10 0 -6 20 -20 45 -32 25 -12 45 -26 45 -30 0 -4 6
-8 13 -8 6 0 22 -11 34 -24 13 -13 48 -36 78 -50 30 -15 55 -31 55 -35 0 -4
18 -18 40 -31 22 -14 40 -28 40 -32 0 -5 6 -8 13 -8 6 0 31 -20 55 -45 24 -25
47 -45 52 -45 4 0 31 -22 58 -50 27 -27 55 -51 61 -51 6 -1 15 -2 21 -3 11 -1
186 -143 209 -170 9 -10 29 -30 45 -45 17 -14 43 -38 59 -53 17 -16 35 -28 42
-28 7 0 20 -9 30 -20 10 -11 23 -20 29 -20 11 0 76 -62 76 -73 0 -13 92 -92
120 -104 25 -11 100 -82 235 -222 22 -22 45 -41 52 -41 14 0 91 -76 163 -160
25 -28 55 -56 68 -61 12 -5 25 -16 29 -26 4 -9 14 -24 22 -33 9 -9 45 -49 81
-89 36 -40 86 -95 113 -122 26 -27 47 -52 47 -57 0 -16 97 -122 111 -122 5 0
15 -16 23 -35 8 -19 22 -38 31 -41 8 -3 15 -17 15 -29 0 -13 5 -27 10 -30 6
-4 20 -26 31 -50 20 -43 30 -54 81 -97 25 -21 49 -59 86 -133 8 -16 23 -42 34
-57 10 -14 18 -34 18 -45 1 -10 15 -27 32 -38 21 -13 46 -48 75 -105 24 -47
55 -95 69 -107 14 -13 22 -23 19 -23 -3 0 -3 -6 2 -12 9 -16 10 -20 22 -83 6
-27 19 -79 30 -115 12 -36 21 -81 21 -101 0 -52 39 -161 66 -186 34 -31 34
-95 -1 -125 -14 -12 -25 -26 -25 -31 0 -6 -11 -25 -25 -43 -14 -18 -25 -35
-25 -39 0 -3 -9 -15 -20 -27 -11 -12 -20 -28 -20 -35 0 -7 -3 -13 -7 -13 -55
-3 -132 -11 -193 -19 -250 -34 -280 -37 -297 -27 -9 5 -45 11 -78 13 -33 2
-80 8 -105 13 -81 17 -239 40 -280 40 -21 0 -62 9 -90 20 -28 11 -63 20 -78
20 -16 0 -68 9 -118 20 -49 11 -107 20 -129 20 -22 0 -71 11 -110 24 -150 50
-181 59 -220 63 -22 2 -58 7 -80 13 -22 5 -47 8 -55 7 -8 -1 -42 7 -75 17 -33
10 -89 27 -125 38 -36 11 -87 26 -115 35 -61 19 -84 23 -155 28 -30 2 -84 12
-120 24 -36 11 -73 21 -83 21 -21 0 -148 34 -230 62 -32 11 -70 22 -85 24 -15
3 -54 13 -87 24 -33 11 -76 22 -95 25 -19 2 -57 12 -85 21 -27 9 -66 18 -85
20 -42 5 -107 24 -135 39 -11 7 -31 11 -45 10 -13 -2 -49 6 -80 17 -30 10 -70
21 -88 24 -18 3 -56 13 -85 23 -29 10 -63 17 -77 16 -21 -2 -88 17 -150 43 -8
3 -19 7 -25 7 -45 7 -97 19 -131 32 -22 8 -44 13 -50 11 -5 -1 -29 3 -54 9
-98 24 -146 35 -165 37 -11 2 -42 10 -70 19 -27 9 -63 19 -80 21 -16 2 -55 12
-85 21 -30 10 -64 19 -75 20 -11 2 -52 13 -90 25 -39 12 -86 24 -105 26 -19 3
-52 14 -73 24 -21 11 -48 20 -60 20 -13 0 -59 11 -104 24 -44 12 -87 20 -94
16 -8 -5 -57 5 -109 21 -52 15 -104 28 -115 27 -11 -1 -55 9 -99 21 -43 13
-93 24 -111 26 -19 1 -56 10 -83 19 -28 10 -61 18 -74 18 -13 1 -62 12 -109
25 -48 13 -91 23 -95 21 -16 -5 -154 36 -154 45 0 5 -10 7 -22 3 -13 -3 -77 7
-143 24 -184 45 -377 91 -405 96 -29 6 -198 45 -320 76 -47 11 -103 22 -125
22 -22 1 -61 10 -88 19 -26 9 -66 19 -90 22 -66 9 -261 45 -384 71 -62 13
-124 24 -138 24 -15 0 -63 9 -107 21 -45 11 -102 21 -127 23 -43 2 -151 31
-232 61 -20 8 -39 12 -42 9 -3 -3 -18 1 -34 9 -15 8 -45 17 -67 21 -21 4 -50
12 -65 18 -14 6 -37 13 -51 15 -14 2 -55 12 -92 23 -37 11 -71 19 -75 18 -4
-1 -39 7 -78 19 -38 12 -110 31 -160 43 -49 12 -117 32 -150 45 -58 21 -172
57 -225 70 -14 4 -39 13 -56 21 -18 7 -47 16 -65 18 -19 3 -70 14 -114 26 -44
11 -93 22 -110 25 -16 2 -56 13 -87 24 -32 11 -58 18 -58 16 0 -2 -30 8 -67
21 -36 13 -68 22 -71 19 -2 -2 -23 5 -46 17 -22 12 -54 25 -71 29 -30 8 -117
36 -145 47 -8 3 -22 7 -30 8 -17 3 -99 31 -145 50 -16 6 -48 18 -70 25 -22 7
-47 18 -55 24 -29 21 -70 38 -76 32 -4 -4 -23 1 -43 11 -20 10 -63 31 -96 47
-33 15 -67 32 -75 37 -8 4 -31 16 -50 24 -19 9 -42 22 -50 29 -8 7 -27 15 -41
18 -14 4 -36 16 -50 27 -13 12 -36 24 -52 27 -15 3 -32 14 -38 24 -5 11 -16
19 -24 19 -8 0 -15 4 -15 9 0 6 -18 20 -40 32 -22 13 -40 26 -40 31 0 4 -6 8
-13 8 -13 0 -87 61 -87 71 0 4 -16 24 -35 45 -19 21 -35 44 -35 51 0 7 -4 13
-10 13 -5 0 -10 8 -10 19 0 10 -7 24 -15 31 -8 6 -14 15 -13 18 1 4 -5 21 -12
37 -15 35 -16 37 -30 90 -15 58 -25 153 -22 208 2 58 29 158 46 172 6 6 18 30
25 55 21 72 42 111 67 120 13 5 32 27 44 50 11 22 24 40 28 40 13 0 62 47 62
59 0 16 55 71 69 71 7 0 16 11 21 25 5 14 15 25 22 25 7 0 19 9 26 20 7 11 20
20 30 20 10 0 28 9 40 20 12 11 26 20 31 20 6 0 15 8 20 19 6 10 26 26 44 34
19 9 51 32 72 52 22 19 45 35 52 35 19 0 91 40 122 68 14 12 34 22 43 22 15 0
71 32 103 58 12 10 89 46 134 63 18 7 41 20 50 29 9 10 45 28 81 40 36 12 101
39 145 60 44 21 99 41 122 44 22 4 56 18 74 32 18 13 40 24 48 24 9 1 34 9 56
20 22 11 56 19 76 20 21 0 48 10 69 25 19 14 39 25 46 25 6 0 23 9 37 20 14
11 32 20 41 20 9 0 38 11 65 25 27 13 51 22 54 19 3 -3 16 2 30 11 34 22 126
55 154 55 23 0 47 8 128 45 83 38 110 49 117 47 14 -3 134 28 184 47 85 33
157 54 214 62 66 9 165 32 276 65 48 14 108 24 144 24 34 0 76 6 93 14 28 13
139 26 342 41 33 2 96 8 140 12 92 9 166 7 210 -6z m-23515 -1446 c63 -2 153
-8 200 -14 47 -6 134 -11 193 -12 60 0 121 -5 135 -10 25 -10 128 -26 212 -34
19 -2 86 -15 148 -30 63 -14 122 -23 132 -20 17 5 77 -18 90 -34 10 -13 62
-31 90 -31 16 0 59 -16 96 -35 36 -19 72 -35 79 -35 8 0 45 -30 83 -67 38 -38
85 -83 106 -101 20 -18 36 -37 36 -42 0 -6 7 -10 15 -10 8 0 15 -4 15 -9 0
-14 63 -71 78 -71 6 0 12 -4 12 -10 0 -5 20 -30 45 -56 25 -25 45 -50 45 -55
0 -5 5 -9 11 -9 15 0 79 -65 79 -79 0 -6 11 -18 25 -27 15 -10 25 -26 25 -40
0 -20 73 -131 115 -175 8 -9 15 -21 15 -27 0 -7 4 -12 9 -12 5 0 21 -20 35
-45 15 -25 31 -45 36 -45 6 0 10 -5 10 -11 0 -7 21 -36 46 -65 25 -30 43 -54
39 -54 -3 0 6 -20 20 -43 14 -24 25 -49 25 -56 0 -6 8 -24 17 -38 10 -15 32
-56 48 -92 38 -80 95 -171 107 -171 5 0 9 -10 8 -22 -3 -35 -1 -46 13 -60 41
-43 100 -198 90 -237 -3 -12 2 -27 11 -36 9 -9 16 -28 16 -43 0 -15 9 -40 20
-57 11 -16 20 -39 20 -50 0 -11 9 -36 19 -56 11 -20 24 -54 30 -77 7 -23 18
-48 26 -56 8 -8 15 -22 15 -31 0 -15 6 -24 36 -58 6 -7 15 -23 18 -35 4 -12
12 -22 17 -22 6 0 15 -13 20 -30 6 -16 15 -30 19 -30 5 0 12 -10 16 -22 4 -13
18 -36 31 -52 13 -16 34 -50 46 -75 11 -25 29 -57 39 -71 34 -45 68 -101 68
-110 0 -6 4 -10 9 -10 5 0 12 -9 16 -19 3 -11 19 -36 35 -56 26 -33 30 -46 30
-104 0 -66 0 -67 45 -109 25 -23 45 -44 45 -46 0 -3 79 -89 232 -250 42 -45
85 -92 97 -106 12 -14 30 -36 41 -49 11 -13 20 -29 20 -34 0 -6 11 -25 25 -43
14 -18 25 -38 25 -44 0 -7 9 -23 20 -37 11 -14 20 -32 20 -39 0 -7 6 -19 13
-26 7 -7 23 -30 36 -50 12 -21 27 -38 32 -38 5 0 9 -6 9 -13 0 -6 19 -33 43
-59 23 -25 53 -61 67 -79 14 -19 36 -46 50 -61 44 -47 60 -68 60 -78 0 -6 6
-13 14 -16 8 -3 45 -44 82 -92 38 -48 71 -89 74 -92 5 -5 87 -103 120 -143 8
-10 23 -28 33 -40 10 -11 20 -32 24 -46 3 -14 22 -55 40 -91 19 -36 38 -72 42
-80 19 -37 45 -87 58 -111 7 -15 20 -32 28 -39 8 -7 15 -18 15 -24 0 -9 13
-28 60 -83 5 -6 19 -29 31 -50 22 -38 77 -126 109 -173 9 -14 20 -35 24 -48 4
-12 11 -22 16 -22 8 0 70 -85 70 -95 0 -6 103 -158 117 -173 7 -7 13 -19 13
-26 0 -7 11 -23 24 -35 13 -13 27 -34 30 -47 4 -13 10 -24 15 -24 5 0 14 -13
21 -30 7 -16 16 -30 21 -30 5 0 9 -7 9 -15 0 -8 9 -24 20 -35 11 -11 17 -20
13 -20 -5 0 -1 -6 7 -13 8 -7 16 -19 18 -28 4 -27 123 -254 160 -306 12 -17
22 -35 22 -40 0 -9 42 -96 51 -103 9 -8 21 -42 25 -75 3 -16 16 -52 29 -78 14
-27 25 -54 25 -60 0 -7 9 -30 19 -52 56 -117 71 -152 71 -164 0 -17 49 -181
60 -202 5 -10 4 -24 -4 -35 -7 -11 -18 -38 -25 -61 -6 -24 -16 -43 -21 -43 -6
0 -10 -8 -10 -17 0 -10 -32 -51 -70 -91 -39 -40 -70 -75 -70 -77 0 -9 -220
-214 -246 -228 -8 -5 -14 -23 -14 -47 0 -48 -8 -70 -26 -70 -8 0 -17 -7 -20
-15 -4 -8 -11 -15 -16 -15 -10 0 -150 -119 -156 -132 -2 -5 -10 -8 -17 -8 -20
0 -179 -118 -243 -180 -37 -36 -115 -90 -129 -90 -7 0 -13 -4 -13 -10 0 -5 -7
-10 -15 -10 -8 0 -15 -4 -15 -8 0 -4 -12 -13 -27 -20 -27 -12 -59 -30 -153
-86 -25 -15 -57 -31 -72 -37 -16 -6 -28 -15 -28 -20 0 -5 -6 -9 -12 -9 -7 -1
-29 -14 -48 -30 -19 -17 -38 -30 -44 -30 -5 0 -23 -11 -40 -24 -17 -13 -41
-26 -53 -30 -11 -4 -27 -13 -33 -21 -7 -8 -24 -15 -39 -15 -24 0 -101 -28
-197 -71 -22 -11 -47 -19 -55 -19 -8 0 -27 -7 -43 -15 -16 -9 -46 -20 -65 -24
-20 -5 -58 -18 -86 -29 -110 -45 -162 -63 -200 -67 -22 -3 -44 -10 -49 -15 -6
-6 -18 -10 -28 -10 -10 0 -18 -4 -18 -10 0 -5 -9 -10 -20 -10 -11 0 -37 -6
-57 -14 -21 -8 -83 -26 -138 -41 -55 -14 -127 -35 -160 -46 -33 -12 -77 -25
-99 -30 -21 -6 -48 -16 -60 -24 -11 -8 -33 -15 -48 -15 -14 0 -39 -5 -55 -11
-32 -12 -237 -67 -300 -80 -24 -4 -63 -17 -87 -29 -25 -11 -56 -20 -70 -20
-13 0 -44 -8 -68 -19 -24 -10 -88 -28 -143 -41 -55 -12 -103 -28 -107 -35 -8
-14 -47 -24 -203 -55 -60 -12 -135 -30 -165 -40 -30 -10 -86 -26 -125 -35 -38
-10 -74 -20 -80 -23 -5 -4 -19 -8 -30 -9 -11 -2 -32 -12 -47 -23 -15 -11 -32
-20 -37 -20 -14 0 -71 -34 -71 -42 0 -5 -4 -8 -9 -8 -5 0 -38 -19 -73 -42 -68
-46 -74 -50 -158 -93 -30 -16 -57 -31 -60 -34 -8 -10 -63 -40 -102 -57 -21
-10 -38 -21 -38 -26 0 -4 -5 -8 -11 -8 -6 0 -25 -11 -43 -25 -18 -14 -37 -25
-43 -25 -5 0 -18 -9 -28 -20 -10 -11 -24 -20 -32 -20 -7 0 -13 -4 -13 -9 0 -4
-29 -22 -63 -39 -35 -18 -90 -50 -123 -72 -32 -22 -65 -40 -71 -40 -7 0 -13
-4 -13 -10 0 -5 -7 -10 -15 -10 -9 0 -18 -7 -21 -15 -3 -8 -15 -17 -27 -21
-11 -3 -32 -17 -46 -30 -14 -13 -30 -24 -35 -24 -5 0 -17 -6 -25 -14 -9 -7
-43 -28 -76 -46 -33 -18 -72 -43 -87 -56 -16 -12 -37 -25 -48 -29 -11 -3 -20
-11 -20 -16 0 -5 -5 -9 -10 -9 -10 0 -110 -65 -120 -78 -3 -4 -14 -13 -25 -20
-57 -36 -81 -52 -91 -60 -6 -5 -26 -13 -45 -17 -19 -4 -48 -16 -65 -26 -17
-10 -38 -19 -45 -19 -8 0 -41 -14 -73 -30 -32 -17 -66 -30 -75 -30 -10 0 -53
-18 -97 -40 -43 -22 -90 -42 -104 -44 -14 -2 -41 -10 -60 -18 -33 -15 -46 -19
-130 -48 -19 -7 -57 -23 -85 -35 -27 -13 -61 -27 -75 -31 -14 -3 -34 -13 -45
-20 -11 -8 -30 -14 -44 -14 -13 0 -32 -6 -40 -13 -9 -7 -36 -19 -61 -27 -25
-7 -64 -21 -87 -31 -24 -11 -48 -19 -54 -19 -7 0 -55 -17 -108 -38 -53 -22
-132 -47 -176 -56 -44 -10 -93 -22 -109 -27 -16 -5 -41 -9 -55 -9 -22 0 -82
-17 -216 -62 -16 -6 -48 -15 -70 -20 -22 -6 -63 -17 -90 -24 -28 -8 -82 -16
-120 -19 -39 -2 -142 -9 -230 -15 -88 -7 -170 -12 -182 -11 -13 0 -49 -5 -80
-12 -43 -10 -153 -12 -423 -11 -392 3 -415 4 -590 22 -248 27 -305 34 -315 42
-5 4 -35 10 -65 14 -30 4 -82 15 -115 26 -146 46 -231 70 -245 71 -8 0 -33 8
-55 19 -22 11 -48 19 -58 20 -10 0 -34 7 -54 15 -20 9 -70 23 -111 31 -70 14
-94 23 -187 64 -22 10 -107 39 -190 65 -82 26 -175 56 -205 66 -30 11 -68 22
-85 25 -16 3 -42 14 -57 25 -15 10 -35 19 -45 19 -10 0 -29 9 -43 20 -14 11
-32 20 -40 20 -9 0 -20 4 -25 9 -9 9 -61 30 -175 72 -19 7 -57 23 -85 35 -58
27 -86 37 -100 39 -14 1 -157 75 -175 90 -8 7 -26 16 -40 20 -14 4 -32 13 -40
20 -8 7 -52 32 -97 54 -45 23 -85 46 -88 52 -4 5 -13 9 -21 9 -8 0 -23 9 -34
20 -12 12 -25 18 -30 15 -5 -3 -11 -1 -15 5 -3 5 -14 10 -23 10 -9 1 -35 9
-57 20 -22 11 -48 19 -58 20 -10 0 -32 7 -50 17 -18 9 -45 20 -62 24 -61 16
-170 59 -173 69 -2 5 -12 10 -21 10 -10 0 -45 13 -77 29 -125 61 -184 85 -198
82 -5 -1 -12 2 -15 6 -11 15 -116 80 -166 103 -27 12 -61 30 -75 40 -14 10
-36 20 -50 21 -14 2 -27 6 -30 9 -17 18 -89 70 -97 70 -5 0 -19 11 -31 25 -12
14 -29 25 -39 25 -9 0 -24 7 -34 16 -10 9 -33 23 -51 33 -18 9 -32 22 -31 28
2 7 -30 38 -70 70 -39 32 -85 70 -102 85 -16 16 -36 28 -42 28 -7 0 -13 4 -13
9 0 4 -26 28 -57 53 -32 25 -69 55 -82 67 -13 12 -28 21 -33 21 -4 0 -8 6 -8
13 0 8 -10 19 -22 26 -100 53 -136 83 -230 193 -22 26 -64 72 -94 103 -30 31
-54 59 -54 61 0 2 -21 26 -48 53 -162 168 -171 182 -171 279 0 49 -7 104 -21
152 -11 41 -25 101 -30 133 -5 32 -15 66 -22 75 -11 13 -11 15 2 7 13 -7 13
-6 2 7 -18 22 -23 134 -22 483 1 327 1 326 24 435 9 41 18 98 20 125 2 28 7
61 11 75 3 14 8 36 10 50 1 14 6 41 10 60 4 19 8 55 10 80 1 25 13 79 25 120
13 41 24 86 25 100 1 14 3 25 4 25 3 0 7 19 13 50 2 11 7 26 12 33 4 8 10 35
12 61 1 26 8 60 14 76 6 17 11 31 10 33 -2 4 21 116 27 132 8 21 24 72 47 155
2 6 6 17 9 25 9 25 20 74 22 100 2 21 24 99 42 150 3 8 7 22 8 30 2 13 23 66
58 150 6 14 11 27 12 30 1 3 5 13 9 22 4 9 9 22 10 30 3 12 6 20 23 66 3 9 5
20 5 25 -1 4 2 7 8 7 5 0 10 7 10 15 0 21 53 148 65 157 5 4 6 8 2 8 -5 0 -1
10 7 22 9 12 16 31 16 41 0 11 9 36 19 56 10 20 33 65 49 101 71 155 105 227
117 250 7 14 27 60 45 103 17 42 36 77 41 77 5 0 9 6 9 14 0 7 7 19 15 26 9 7
13 15 11 18 -3 3 4 18 15 33 11 16 36 59 56 96 67 128 73 138 102 178 17 22
38 54 47 70 16 29 80 129 96 150 58 77 78 108 78 122 0 9 3 13 7 10 9 -9 33
12 33 29 0 14 73 115 117 164 13 14 23 30 23 35 0 6 18 29 40 50 22 21 40 44
40 50 0 5 11 22 25 37 14 15 25 32 25 37 0 6 9 16 20 23 11 7 20 17 20 22 0 5
10 19 23 31 12 13 27 29 32 37 6 7 27 34 48 59 20 25 37 49 37 54 0 10 60 65
71 65 5 0 9 5 9 11 0 5 13 24 30 42 16 18 30 35 30 39 0 4 9 10 20 13 11 3 20
13 20 20 0 8 9 19 20 25 11 6 20 15 20 20 0 18 181 190 199 190 5 0 13 9 16
20 3 11 10 20 14 20 5 0 49 41 99 90 50 50 94 90 99 90 12 0 93 78 93 90 0 6
6 10 13 10 7 0 23 10 34 23 12 12 37 36 56 54 19 17 33 34 31 36 -3 3 6 7 20
11 14 3 30 15 36 26 6 11 15 20 21 20 12 0 91 60 102 78 4 6 14 12 21 12 8 0
21 12 31 26 9 14 19 23 23 20 3 -3 14 6 24 21 10 16 18 25 18 21 0 -4 12 4 27
18 14 13 28 22 30 20 2 -2 18 9 35 25 17 15 35 26 39 23 4 -2 9 -1 11 4 1 4
35 30 73 57 39 27 72 53 73 57 2 4 10 8 18 8 8 0 14 6 14 14 0 8 10 18 22 22
12 3 31 15 42 26 12 11 50 36 86 56 36 20 67 38 70 41 3 4 19 13 35 21 17 8
37 20 47 28 9 7 23 15 32 16 8 1 23 9 33 18 10 8 33 23 51 32 17 9 32 21 32
26 0 6 7 10 16 10 8 0 30 11 48 25 18 14 38 25 43 25 6 0 16 6 22 14 7 8 27
18 44 22 31 6 152 67 172 85 5 5 15 9 22 9 12 0 73 36 104 62 8 7 40 25 70 39
259 126 377 185 392 197 9 8 17 12 17 8 0 -4 15 4 33 18 19 15 38 26 44 26 5
0 23 6 39 14 16 7 61 28 99 46 39 17 93 43 120 58 28 14 51 25 53 23 3 -2 166
73 192 89 21 13 82 41 100 45 35 9 119 40 166 62 28 13 56 23 63 23 6 0 21 5
34 12 48 24 57 28 77 28 11 0 28 4 38 10 28 16 205 81 232 85 14 2 39 11 55
19 17 9 37 16 46 16 8 0 44 11 78 25 36 15 78 25 99 24 23 -2 60 8 96 24 33
15 61 25 63 23 3 -2 30 5 61 16 32 11 67 21 79 23 12 2 48 13 80 25 32 12 76
24 99 25 22 2 66 11 98 20 32 9 68 18 79 19 21 3 79 20 125 37 13 5 35 9 51 9
15 0 52 7 82 16 30 9 68 18 84 19 96 8 153 17 230 35 47 12 89 19 93 16 5 -3
66 8 137 23 71 16 135 27 141 24 7 -2 74 5 150 17 77 12 204 23 284 25 80 2
199 9 265 14 66 6 158 13 204 16 46 2 85 6 87 7 3 4 369 -1 534 -7z"/>
</g>
</svg>
